<svg width="992" height="572" viewBox="0 0 992 572" fill="none" xmlns="http://www.w3.org/2000/svg">
<g clip-path="url(#clip0_3_33)">
<path d="M937.094 345.888C925.023 288.657 900.556 232.648 871.138 182.293C823.352 100.51 751.993 28.5872 656.96 7.17521C441.689 -41.3463 395.407 171.054 346.983 199.087C298.559 227.121 177.995 212.031 112.38 301.516C46.7646 391 54.2253 532.245 54.2253 532.245H946.498C948.526 469.799 949.959 406.856 937.094 345.888Z" fill="#B37443"/>
<path opacity="0.7" d="M937.094 345.888C925.023 288.657 900.556 232.648 871.138 182.293C823.352 100.51 751.993 28.5872 656.96 7.17521C441.689 -41.3463 395.407 171.054 346.983 199.087C298.559 227.121 177.995 212.031 112.38 301.516C46.7646 391 54.2253 532.245 54.2253 532.245H946.498C948.526 469.799 949.959 406.856 937.094 345.888Z" fill="white"/>
<g opacity="0.3">
<path d="M97.7132 324.647H63.5439V358.875H97.7132V324.647Z" stroke="black" stroke-linecap="round" stroke-linejoin="round"/>
<path d="M136.294 324.647H102.125V358.875H136.294V324.647Z" stroke="black" stroke-linecap="round" stroke-linejoin="round"/>
<path d="M174.874 324.647H140.705V358.875H174.874V324.647Z" stroke="black" stroke-linecap="round" stroke-linejoin="round"/>
<path d="M213.455 324.647H179.286V358.875H213.455V324.647Z" stroke="black" stroke-linecap="round" stroke-linejoin="round"/>
<path d="M252.05 324.647H217.88V358.875H252.05V324.647Z" stroke="black" stroke-linecap="round" stroke-linejoin="round"/>
<path d="M290.63 324.647H256.46V358.875H290.63V324.647Z" stroke="black" stroke-linecap="round" stroke-linejoin="round"/>
<path d="M329.21 324.647H295.041V358.875H329.21V324.647Z" stroke="black" stroke-linecap="round" stroke-linejoin="round"/>
<path d="M367.791 324.647H333.622V358.875H367.791V324.647Z" stroke="black" stroke-linecap="round" stroke-linejoin="round"/>
<path d="M406.371 324.647H372.202V358.875H406.371V324.647Z" stroke="black" stroke-linecap="round" stroke-linejoin="round"/>
<path d="M444.951 324.647H410.782V358.875H444.951V324.647Z" stroke="black" stroke-linecap="round" stroke-linejoin="round"/>
<path d="M483.532 324.647H449.363V358.875H483.532V324.647Z" stroke="black" stroke-linecap="round" stroke-linejoin="round"/>
<path d="M522.127 324.647H487.958V358.875H522.127V324.647Z" stroke="black" stroke-linecap="round" stroke-linejoin="round"/>
<path d="M560.707 324.647H526.538V358.875H560.707V324.647Z" stroke="black" stroke-linecap="round" stroke-linejoin="round"/>
<path d="M599.288 324.647H565.119V358.875H599.288V324.647Z" stroke="black" stroke-linecap="round" stroke-linejoin="round"/>
<path d="M637.868 324.647H603.699V358.875H637.868V324.647Z" stroke="black" stroke-linecap="round" stroke-linejoin="round"/>
<path d="M676.449 324.647H642.279V358.875H676.449V324.647Z" stroke="black" stroke-linecap="round" stroke-linejoin="round"/>
<path d="M715.029 324.647H680.86V358.875H715.029V324.647Z" stroke="black" stroke-linecap="round" stroke-linejoin="round"/>
<path d="M753.624 324.647H719.455V358.875H753.624V324.647Z" stroke="black" stroke-linecap="round" stroke-linejoin="round"/>
<path d="M792.204 324.647H758.035V358.875H792.204V324.647Z" stroke="black" stroke-linecap="round" stroke-linejoin="round"/>
<path d="M830.784 324.647H796.615V358.875H830.784V324.647Z" stroke="black" stroke-linecap="round" stroke-linejoin="round"/>
<path d="M869.365 324.647H835.196V358.875H869.365V324.647Z" stroke="black" stroke-linecap="round" stroke-linejoin="round"/>
<path d="M907.946 324.647H873.776V358.875H907.946V324.647Z" stroke="black" stroke-linecap="round" stroke-linejoin="round"/>
<path d="M78.9764 364.402H44.8071V398.63H78.9764V364.402Z" stroke="black" stroke-linecap="round" stroke-linejoin="round"/>
<path d="M117.557 364.402H83.3877V398.63H117.557V364.402Z" stroke="black" stroke-linecap="round" stroke-linejoin="round"/>
<path d="M156.138 364.402H121.968V398.63H156.138V364.402Z" stroke="black" stroke-linecap="round" stroke-linejoin="round"/>
<path d="M194.718 364.402H160.548V398.63H194.718V364.402Z" stroke="black" stroke-linecap="round" stroke-linejoin="round"/>
<path d="M233.298 364.402H199.129V398.63H233.298V364.402Z" stroke="black" stroke-linecap="round" stroke-linejoin="round"/>
<path d="M271.879 364.402H237.709V398.63H271.879V364.402Z" stroke="black" stroke-linecap="round" stroke-linejoin="round"/>
<path d="M310.473 364.402H276.304V398.63H310.473V364.402Z" stroke="black" stroke-linecap="round" stroke-linejoin="round"/>
<path d="M349.054 364.402H314.885V398.63H349.054V364.402Z" stroke="black" stroke-linecap="round" stroke-linejoin="round"/>
<path d="M387.634 364.402H353.465V398.63H387.634V364.402Z" stroke="black" stroke-linecap="round" stroke-linejoin="round"/>
<path d="M426.215 364.402H392.045V398.63H426.215V364.402Z" stroke="black" stroke-linecap="round" stroke-linejoin="round"/>
<path d="M464.795 364.402H430.626V398.63H464.795V364.402Z" stroke="black" stroke-linecap="round" stroke-linejoin="round"/>
<path d="M503.376 364.402H469.207V398.63H503.376V364.402Z" stroke="black" stroke-linecap="round" stroke-linejoin="round"/>
<path d="M541.97 364.402H507.801V398.63H541.97V364.402Z" stroke="black" stroke-linecap="round" stroke-linejoin="round"/>
<path d="M580.551 364.402H546.381V398.63H580.551V364.402Z" stroke="black" stroke-linecap="round" stroke-linejoin="round"/>
<path d="M619.131 364.402H584.962V398.63H619.131V364.402Z" stroke="black" stroke-linecap="round" stroke-linejoin="round"/>
<path d="M657.712 364.402H623.542V398.63H657.712V364.402Z" stroke="black" stroke-linecap="round" stroke-linejoin="round"/>
<path d="M696.292 364.402H662.123V398.63H696.292V364.402Z" stroke="black" stroke-linecap="round" stroke-linejoin="round"/>
<path d="M734.872 364.402H700.703V398.63H734.872V364.402Z" stroke="black" stroke-linecap="round" stroke-linejoin="round"/>
<path d="M773.453 364.402H739.284V398.63H773.453V364.402Z" stroke="black" stroke-linecap="round" stroke-linejoin="round"/>
<path d="M812.048 364.402H777.878V398.63H812.048V364.402Z" stroke="black" stroke-linecap="round" stroke-linejoin="round"/>
<path d="M850.628 364.402H816.459V398.63H850.628V364.402Z" stroke="black" stroke-linecap="round" stroke-linejoin="round"/>
<path d="M889.208 364.402H855.039V398.63H889.208V364.402Z" stroke="black" stroke-linecap="round" stroke-linejoin="round"/>
<path d="M97.7132 404.157H63.5439V438.385H97.7132V404.157Z" stroke="black" stroke-linecap="round" stroke-linejoin="round"/>
<path d="M136.294 404.157H102.125V438.385H136.294V404.157Z" stroke="black" stroke-linecap="round" stroke-linejoin="round"/>
<path d="M174.874 404.157H140.705V438.385H174.874V404.157Z" stroke="black" stroke-linecap="round" stroke-linejoin="round"/>
<path d="M213.455 404.157H179.286V438.385H213.455V404.157Z" stroke="black" stroke-linecap="round" stroke-linejoin="round"/>
<path d="M252.05 404.157H217.88V438.385H252.05V404.157Z" stroke="black" stroke-linecap="round" stroke-linejoin="round"/>
<path d="M290.63 404.157H256.46V438.385H290.63V404.157Z" stroke="black" stroke-linecap="round" stroke-linejoin="round"/>
<path d="M329.21 404.157H295.041V438.385H329.21V404.157Z" stroke="black" stroke-linecap="round" stroke-linejoin="round"/>
<path d="M367.791 404.157H333.622V438.385H367.791V404.157Z" stroke="black" stroke-linecap="round" stroke-linejoin="round"/>
<path d="M406.371 404.157H372.202V438.385H406.371V404.157Z" stroke="black" stroke-linecap="round" stroke-linejoin="round"/>
<path d="M444.951 404.157H410.782V438.385H444.951V404.157Z" stroke="black" stroke-linecap="round" stroke-linejoin="round"/>
<path d="M483.532 404.157H449.363V438.385H483.532V404.157Z" stroke="black" stroke-linecap="round" stroke-linejoin="round"/>
<path d="M522.127 404.157H487.958V438.385H522.127V404.157Z" stroke="black" stroke-linecap="round" stroke-linejoin="round"/>
<path d="M560.707 404.157H526.538V438.385H560.707V404.157Z" stroke="black" stroke-linecap="round" stroke-linejoin="round"/>
<path d="M599.288 404.157H565.119V438.385H599.288V404.157Z" stroke="black" stroke-linecap="round" stroke-linejoin="round"/>
<path d="M637.868 404.157H603.699V438.385H637.868V404.157Z" stroke="black" stroke-linecap="round" stroke-linejoin="round"/>
<path d="M676.449 404.157H642.279V438.385H676.449V404.157Z" stroke="black" stroke-linecap="round" stroke-linejoin="round"/>
<path d="M715.029 404.157H680.86V438.385H715.029V404.157Z" stroke="black" stroke-linecap="round" stroke-linejoin="round"/>
<path d="M753.624 404.157H719.455V438.385H753.624V404.157Z" stroke="black" stroke-linecap="round" stroke-linejoin="round"/>
<path d="M792.204 404.157H758.035V438.385H792.204V404.157Z" stroke="black" stroke-linecap="round" stroke-linejoin="round"/>
<path d="M830.784 404.157H796.615V438.385H830.784V404.157Z" stroke="black" stroke-linecap="round" stroke-linejoin="round"/>
<path d="M869.365 404.157H835.196V438.385H869.365V404.157Z" stroke="black" stroke-linecap="round" stroke-linejoin="round"/>
<path d="M907.946 404.157H873.776V438.385H907.946V404.157Z" stroke="black" stroke-linecap="round" stroke-linejoin="round"/>
<path d="M97.7132 483.667H63.5439V517.895H97.7132V483.667Z" stroke="black" stroke-linecap="round" stroke-linejoin="round"/>
<path d="M136.294 483.667H102.125V517.895H136.294V483.667Z" stroke="black" stroke-linecap="round" stroke-linejoin="round"/>
<path d="M174.874 483.667H140.705V517.895H174.874V483.667Z" stroke="black" stroke-linecap="round" stroke-linejoin="round"/>
<path d="M213.455 483.667H179.286V517.895H213.455V483.667Z" stroke="black" stroke-linecap="round" stroke-linejoin="round"/>
<path d="M252.05 483.667H217.88V517.895H252.05V483.667Z" stroke="black" stroke-linecap="round" stroke-linejoin="round"/>
<path d="M290.63 483.667H256.46V517.895H290.63V483.667Z" stroke="black" stroke-linecap="round" stroke-linejoin="round"/>
<path d="M329.21 483.667H295.041V517.895H329.21V483.667Z" stroke="black" stroke-linecap="round" stroke-linejoin="round"/>
<path d="M367.791 483.667H333.622V517.895H367.791V483.667Z" stroke="black" stroke-linecap="round" stroke-linejoin="round"/>
<path d="M406.371 483.667H372.202V517.895H406.371V483.667Z" stroke="black" stroke-linecap="round" stroke-linejoin="round"/>
<path d="M444.951 483.667H410.782V517.895H444.951V483.667Z" stroke="black" stroke-linecap="round" stroke-linejoin="round"/>
<path d="M483.532 483.667H449.363V517.895H483.532V483.667Z" stroke="black" stroke-linecap="round" stroke-linejoin="round"/>
<path d="M522.127 483.667H487.958V517.895H522.127V483.667Z" stroke="black" stroke-linecap="round" stroke-linejoin="round"/>
<path d="M560.707 483.667H526.538V517.895H560.707V483.667Z" stroke="black" stroke-linecap="round" stroke-linejoin="round"/>
<path d="M599.288 483.667H565.119V517.895H599.288V483.667Z" stroke="black" stroke-linecap="round" stroke-linejoin="round"/>
<path d="M637.868 483.667H603.699V517.895H637.868V483.667Z" stroke="black" stroke-linecap="round" stroke-linejoin="round"/>
<path d="M676.449 483.667H642.279V517.895H676.449V483.667Z" stroke="black" stroke-linecap="round" stroke-linejoin="round"/>
<path d="M715.029 483.667H680.86V517.895H715.029V483.667Z" stroke="black" stroke-linecap="round" stroke-linejoin="round"/>
<path d="M753.624 483.667H719.455V517.895H753.624V483.667Z" stroke="black" stroke-linecap="round" stroke-linejoin="round"/>
<path d="M792.204 483.667H758.035V517.895H792.204V483.667Z" stroke="black" stroke-linecap="round" stroke-linejoin="round"/>
<path d="M830.784 483.667H796.615V517.895H830.784V483.667Z" stroke="black" stroke-linecap="round" stroke-linejoin="round"/>
<path d="M869.365 483.667H835.196V517.895H869.365V483.667Z" stroke="black" stroke-linecap="round" stroke-linejoin="round"/>
<path d="M907.946 483.667H873.776V517.895H907.946V483.667Z" stroke="black" stroke-linecap="round" stroke-linejoin="round"/>
<path d="M78.9764 443.912H44.8071V478.14H78.9764V443.912Z" stroke="black" stroke-linecap="round" stroke-linejoin="round"/>
<path d="M117.557 443.912H83.3877V478.14H117.557V443.912Z" stroke="black" stroke-linecap="round" stroke-linejoin="round"/>
<path d="M156.138 443.912H121.968V478.14H156.138V443.912Z" stroke="black" stroke-linecap="round" stroke-linejoin="round"/>
<path d="M194.718 443.912H160.548V478.14H194.718V443.912Z" stroke="black" stroke-linecap="round" stroke-linejoin="round"/>
<path d="M233.298 443.912H199.129V478.14H233.298V443.912Z" stroke="black" stroke-linecap="round" stroke-linejoin="round"/>
<path d="M271.879 443.912H237.709V478.14H271.879V443.912Z" stroke="black" stroke-linecap="round" stroke-linejoin="round"/>
<path d="M310.473 443.912H276.304V478.14H310.473V443.912Z" stroke="black" stroke-linecap="round" stroke-linejoin="round"/>
<path d="M349.054 443.912H314.885V478.14H349.054V443.912Z" stroke="black" stroke-linecap="round" stroke-linejoin="round"/>
<path d="M387.634 443.912H353.465V478.14H387.634V443.912Z" stroke="black" stroke-linecap="round" stroke-linejoin="round"/>
<path d="M426.215 443.912H392.045V478.14H426.215V443.912Z" stroke="black" stroke-linecap="round" stroke-linejoin="round"/>
<path d="M464.795 443.912H430.626V478.14H464.795V443.912Z" stroke="black" stroke-linecap="round" stroke-linejoin="round"/>
<path d="M503.376 443.912H469.207V478.14H503.376V443.912Z" stroke="black" stroke-linecap="round" stroke-linejoin="round"/>
<path d="M541.97 443.912H507.801V478.14H541.97V443.912Z" stroke="black" stroke-linecap="round" stroke-linejoin="round"/>
<path d="M580.551 443.912H546.381V478.14H580.551V443.912Z" stroke="black" stroke-linecap="round" stroke-linejoin="round"/>
<path d="M619.131 443.912H584.962V478.14H619.131V443.912Z" stroke="black" stroke-linecap="round" stroke-linejoin="round"/>
<path d="M657.712 443.912H623.542V478.14H657.712V443.912Z" stroke="black" stroke-linecap="round" stroke-linejoin="round"/>
<path d="M696.292 443.912H662.123V478.14H696.292V443.912Z" stroke="black" stroke-linecap="round" stroke-linejoin="round"/>
<path d="M734.872 443.912H700.703V478.14H734.872V443.912Z" stroke="black" stroke-linecap="round" stroke-linejoin="round"/>
<path d="M773.453 443.912H739.284V478.14H773.453V443.912Z" stroke="black" stroke-linecap="round" stroke-linejoin="round"/>
<path d="M812.048 443.912H777.878V478.14H812.048V443.912Z" stroke="black" stroke-linecap="round" stroke-linejoin="round"/>
<path d="M850.628 443.912H816.459V478.14H850.628V443.912Z" stroke="black" stroke-linecap="round" stroke-linejoin="round"/>
<path d="M889.208 443.912H855.039V478.14H889.208V443.912Z" stroke="black" stroke-linecap="round" stroke-linejoin="round"/>
</g>
<path d="M0.708984 531.535H991.291" stroke="#263238" stroke-linecap="round" stroke-linejoin="round"/>
<path d="M434.555 307.81C494.553 307.81 543.19 259.089 543.19 198.988C543.19 138.887 494.553 90.1662 434.555 90.1662C374.558 90.1662 325.92 138.887 325.92 198.988C325.92 259.089 374.558 307.81 434.555 307.81Z" fill="#263238" stroke="#263238" stroke-linecap="round" stroke-linejoin="round"/>
<path d="M506.834 271.385C546.749 231.401 546.749 166.574 506.834 126.59C466.919 86.6063 402.203 86.6063 362.287 126.59C322.372 166.574 322.372 231.401 362.287 271.385C402.203 311.369 466.919 311.369 506.834 271.385Z" fill="white" stroke="#263238" stroke-linecap="round" stroke-linejoin="round"/>
<path d="M394.811 235.603L385.28 245.165" stroke="#263238" stroke-linecap="round" stroke-linejoin="round"/>
<path d="M498.681 131.569L404.882 225.529" stroke="#263238" stroke-linecap="round" stroke-linejoin="round"/>
<path d="M439.321 215.441L417.066 237.734" stroke="#263238" stroke-linecap="round" stroke-linejoin="round"/>
<path d="M478.54 123.073L459.987 141.657" stroke="#263238" stroke-linecap="round" stroke-linejoin="round"/>
<path d="M376.798 145.366L354.543 167.659" stroke="#263238" stroke-linecap="round" stroke-linejoin="round"/>
<path d="M478.54 268.524L472.185 274.889" stroke="#263238" stroke-linecap="round" stroke-linejoin="round"/>
<path d="M499.73 247.282L486.482 260.553" stroke="#263238" stroke-linecap="round" stroke-linejoin="round"/>
<path d="M810.119 513.902C810.119 513.618 799.637 440.999 797.424 400.633C795.382 363.407 794.999 310.524 807.892 262.158L806.63 260.013C799.538 286.853 791.737 333.058 795.453 400.775C797.666 441.255 808.119 513.973 808.218 514.271L810.119 513.902Z" fill="#263238"/>
<path d="M826.998 293.317C812.062 298.816 803.112 304.101 798.36 307.426C798.928 301.53 802.871 287.535 825.735 271.181C861.933 245.25 932.229 267.373 948.626 273.07C912.669 274.576 864.77 279.407 826.998 293.317Z" fill="#263238"/>
<path d="M827.622 294.511C866.358 280.302 915.832 275.614 951.959 274.264H952.115C952.115 274.264 911.96 310.921 863.167 319.02C814.374 327.119 798.36 310.353 798.36 310.353C798.33 309.927 798.33 309.5 798.36 309.074C802.729 305.92 811.849 300.294 827.622 294.511Z" fill="#263238"/>
<path d="M775.893 315.411C786.814 322.729 792.913 328.682 796.133 332.277C796.828 327.432 796.36 315.454 781.183 297.907C757.141 270.115 696.519 274.25 682.264 275.656C710.817 283.826 748.291 296.955 775.893 315.411Z" fill="#263238"/>
<path d="M775.17 316.25C746.802 297.338 708.079 284.039 679.371 275.969H679.229C679.229 275.969 704.363 313.138 741.936 329.08C779.51 345.022 795.566 334.664 795.566 334.664C795.692 334.334 795.796 333.998 795.878 333.655C792.928 330.216 786.701 323.936 775.17 316.25Z" fill="#263238"/>
<path d="M784.02 460.18C794.942 467.483 801.041 473.451 804.261 477.046C804.941 472.201 804.473 460.223 789.297 442.676C765.269 414.87 704.632 419.019 690.392 420.425C718.93 428.581 756.404 441.724 784.02 460.18Z" fill="#263238"/>
<path d="M783.283 461.019C754.915 442.107 716.193 428.751 687.484 420.738H687.342C687.342 420.738 712.476 457.907 750.05 473.849C787.623 489.79 803.679 479.433 803.679 479.433C803.803 479.098 803.907 478.756 803.991 478.41C801.041 474.985 794.814 468.705 783.283 461.019Z" fill="#263238"/>
<path d="M818.388 404.498C807.466 411.801 801.367 417.768 798.147 421.349C797.452 416.518 797.921 404.54 813.097 386.993C837.182 359.13 897.762 363.393 912.017 364.729C883.464 372.898 845.99 386.027 818.388 404.498Z" fill="#263238"/>
<path d="M819.112 405.322C847.479 386.411 886.202 373.111 914.91 365.041H915.052C915.052 365.041 889.918 402.196 852.345 418.138C814.771 434.08 798.715 423.722 798.715 423.722C798.589 423.392 798.485 423.056 798.403 422.713C801.353 419.303 807.58 413.023 819.112 405.322Z" fill="#263238"/>
<path d="M825.31 474.36C814.388 481.663 808.289 487.631 805.07 491.226C804.389 486.381 804.857 474.403 820.034 456.856C844.061 429.064 904.698 433.199 918.939 434.605C890.4 442.761 852.926 455.904 825.31 474.36Z" fill="#263238"/>
<path d="M826.033 475.199C854.401 456.287 893.138 442.974 921.846 434.918H921.988C921.988 434.918 896.854 472.087 859.281 488.029C821.707 503.97 805.651 493.613 805.651 493.613C805.525 493.283 805.421 492.946 805.339 492.604C808.289 489.165 814.488 482.885 826.033 475.199Z" fill="#263238"/>
<path d="M768.489 377.331C782.829 384.265 791.183 390.389 795.623 394.168C795.623 388.243 793.07 373.936 771.907 355.422C738.39 326.096 666.293 341.214 649.414 345.334C685.058 350.335 732.22 359.812 768.489 377.331Z" fill="#263238"/>
<path d="M767.765 378.454C730.589 360.509 681.81 351.06 645.982 346.201H645.826C645.826 346.201 682.222 386.595 730.008 399.425C777.794 412.255 795.339 397.109 795.339 397.109C795.433 396.693 795.5 396.27 795.538 395.845C791.424 392.25 782.886 385.757 767.765 378.454Z" fill="#263238"/>
<path d="M816.275 230.417C809.935 245.052 807.58 255.168 806.701 260.908C802.828 256.432 795.453 243.858 799.41 216.052C805.679 171.907 870.174 136.244 885.62 128.287C861.876 155.383 832.303 193.433 816.275 230.417Z" fill="#263238"/>
<path d="M817.565 230.786C834.033 192.878 864.812 153.805 888.769 126.71L888.925 126.625C888.925 126.625 887.691 181.043 859.862 222.006C832.033 262.968 808.799 262.982 808.799 262.982C808.452 262.734 808.125 262.458 807.821 262.158C808.629 256.702 810.87 246.202 817.565 230.786Z" fill="#263238"/>
<path d="M152.208 278.867C152.208 278.867 167.101 287.392 169.91 296.614C172.718 305.835 172.747 316.363 175.583 322.018C178.42 327.673 188.051 332.092 188.86 333.3C189.668 334.507 188.462 334.919 186.023 339.352C184.918 341.746 183.093 343.734 180.803 345.036C180.803 345.036 175.569 361.972 172.293 370.028C169.016 378.084 167.867 381.324 163.782 381.324C159.697 381.324 144.152 377.601 144.152 377.601L145.769 391.71L109.146 405.009C109.146 405.009 109.656 384.62 107.94 378.013C106.929 373.721 104.494 369.898 101.032 367.172C99.8267 366.362 89.7703 355.479 107.472 325.641C125.174 295.804 152.208 278.867 152.208 278.867Z" fill="white" stroke="#263238" stroke-linecap="round" stroke-linejoin="round"/>
<path d="M163.882 307.497C161.555 306.625 158.998 306.59 156.648 307.399C154.298 308.208 152.303 309.81 151.002 311.93" stroke="#263238" stroke-linecap="round" stroke-linejoin="round"/>
<path d="M154.222 328.469C154.222 328.469 161.47 331.31 166.293 325.243" stroke="#263238" stroke-linecap="round" stroke-linejoin="round"/>
<path d="M154.62 345.803C154.62 345.803 158.648 355.067 168.704 353.859" stroke="#263238" stroke-linecap="round" stroke-linejoin="round"/>
<path d="M124.436 322.018C124.436 322.018 128.464 332.49 125.642 334.507C122.819 336.525 117.131 331.282 117.131 331.282L124.436 322.018Z" fill="#263238" stroke="#263238" stroke-linecap="round" stroke-linejoin="round"/>
<path d="M105.926 353.063C105.926 353.063 111.954 359.514 114.776 358.292L117.613 357.084L124.053 366.362L116.393 362.327C116.393 362.327 116.393 364.743 111.968 369.19C107.543 373.637 106.294 371.435 106.294 371.435C106.294 371.435 100.28 363.947 105.926 353.063Z" fill="#263238" stroke="#263238" stroke-linecap="round" stroke-linejoin="round"/>
<path d="M152.79 281.88C152.79 281.88 126.549 320.484 117.457 334.45C108.365 348.417 106.21 371.392 106.21 371.392C106.21 371.392 105.671 372.458 101.387 371.918L97.1318 371.392C97.1318 371.392 109.982 379.917 108.919 386.396C107.855 392.875 105.699 396.058 96.6069 395.518C90.3893 395.032 84.2542 393.786 78.338 391.81C78.338 391.81 72.9764 395.561 62.7356 388.059C52.4947 380.557 48.2821 374.646 48.2821 374.646C48.2821 374.646 41.8567 371.435 40.7929 364.459C40.1436 360.024 39.9629 355.533 40.254 351.06L32.3393 343.501C32.3393 343.501 21.0914 325.272 30.1975 297.381C39.3036 269.49 60.1683 250.195 91.756 246.984C123.344 243.773 122.308 250.777 122.308 250.777C128.314 251.154 133.999 253.621 138.379 257.754C145.825 264.716 155.995 274.378 152.79 281.88Z" fill="white" stroke="#263238" stroke-linecap="round" stroke-linejoin="round"/>
<path d="M107.997 257.37C110.062 256.218 112.193 255.189 114.379 254.287" stroke="#263238" stroke-linecap="round" stroke-linejoin="round"/>
<path d="M97.1032 371.435C97.1032 371.435 89.0183 370.795 80.5647 335.715C73.2457 305.366 80.7065 276.21 102.933 260.553" stroke="#263238" stroke-linecap="round" stroke-linejoin="round"/>
<path d="M45.1616 346.94C54.8209 348.815 71.2885 349.994 80.6216 339.352" stroke="#263238" stroke-linecap="round" stroke-linejoin="round"/>
<path d="M37.5024 344.993C37.5024 344.993 38.7223 345.419 40.7789 345.945" stroke="#263238" stroke-linecap="round" stroke-linejoin="round"/>
<path d="M71.771 370.497C76.7288 368.01 80.7893 364.037 83.3877 359.13" stroke="#263238" stroke-linecap="round" stroke-linejoin="round"/>
<path d="M53.1899 374.021C58.1577 374.405 63.1517 373.776 67.8704 372.174" stroke="#263238" stroke-linecap="round" stroke-linejoin="round"/>
<path d="M90.125 383.285C92.7939 379.815 94.2448 375.559 94.2525 371.179" stroke="#263238" stroke-linecap="round" stroke-linejoin="round"/>
<path d="M81.7705 389.337C83.551 388.724 85.2186 387.822 86.7065 386.666" stroke="#263238" stroke-linecap="round" stroke-linejoin="round"/>
<path d="M169.91 400.633C169.91 400.633 156.634 389.337 139.329 388.542C122.025 387.746 107.131 391.81 98.6778 405.876C90.2241 419.942 99.8834 435.301 113.16 438.939C126.436 442.576 293.878 438.939 293.878 438.939C293.878 438.939 245.581 402.239 231.1 400.576C216.618 398.914 169.91 400.633 169.91 400.633Z" fill="white" stroke="#263238" stroke-linecap="round" stroke-linejoin="round"/>
<path d="M164.279 399.823C164.279 399.823 130.067 394.58 114.379 400.235L164.279 399.823Z" fill="white"/>
<path d="M164.279 399.823C164.279 399.823 130.067 394.58 114.379 400.235" stroke="#263238" stroke-linecap="round" stroke-linejoin="round"/>
<path d="M626.152 531.535C637.201 499.921 643.655 449.524 643.655 449.524H98.0679C107.997 482.942 127.5 516.303 137.031 531.535H626.152Z" fill="white" stroke="#263238" stroke-linecap="round" stroke-linejoin="round"/>
<path d="M641.57 463.789C642.988 455.136 643.655 449.581 643.655 449.581H98.0679C99.4863 454.355 101.103 459.129 102.848 463.789H641.57Z" fill="#263238" stroke="#263238" stroke-linecap="round" stroke-linejoin="round"/>
<path d="M662.931 455.179H80.9194C85.7279 449.631 91.6696 445.182 98.3426 442.133C105.016 439.083 112.265 437.505 119.599 437.504H624.237C631.574 437.504 638.825 439.082 645.501 442.131C652.176 445.18 658.12 449.63 662.931 455.179Z" fill="white" stroke="#263238" stroke-linecap="round" stroke-linejoin="round"/>
<path d="M603.302 363.848H484.327V531.535H603.302V363.848Z" fill="white" stroke="#263238" stroke-linecap="round" stroke-linejoin="round"/>
<path d="M551.7 350.605C551.7 357.88 548.169 363.791 543.814 363.791C539.46 363.791 535.914 357.88 535.914 350.605C535.914 343.331 539.445 324.76 543.814 324.76C548.183 324.76 551.7 343.373 551.7 350.605Z" fill="white" stroke="#263238" stroke-linecap="round" stroke-linejoin="round"/>
<path d="M476.483 410.778H390.812V531.535H476.483V410.778Z" fill="white" stroke="#263238" stroke-linecap="round" stroke-linejoin="round"/>
<path d="M439.335 401.287C439.335 406.53 436.782 410.778 433.661 410.778C430.541 410.778 427.988 406.515 427.988 401.287C427.988 396.058 430.541 382.688 433.661 382.688C436.782 382.688 439.335 396.072 439.335 401.287Z" fill="white" stroke="#263238" stroke-linecap="round" stroke-linejoin="round"/>
<path d="M757.161 571.565C861.269 571.565 945.666 559.702 945.666 545.067C945.666 530.432 861.269 518.568 757.161 518.568C653.052 518.568 568.655 530.432 568.655 545.067C568.655 559.702 653.052 571.565 757.161 571.565Z" fill="#263238"/>
<path d="M971.977 534.212C971.977 546.786 876.76 563.126 759.302 563.126C641.845 563.126 546.542 546.786 546.542 534.212C546.542 521.637 641.774 511.478 759.302 511.478C876.831 511.478 971.977 521.623 971.977 534.212Z" fill="white" stroke="#263238" stroke-linecap="round" stroke-linejoin="round"/>
<path d="M953.864 533.459C953.864 541.6 866.76 554.345 759.303 554.345C651.845 554.345 564.727 541.557 564.727 533.459C564.727 525.36 651.916 518.753 759.303 518.753C866.69 518.753 953.864 525.346 953.864 533.459Z" fill="white" stroke="#263238" stroke-linecap="round" stroke-linejoin="round"/>
<path d="M870.804 505.461C909.877 466.321 909.877 402.861 870.804 363.721C831.73 324.58 768.38 324.58 729.306 363.721C690.233 402.861 690.233 466.321 729.306 505.461C768.38 544.602 831.73 544.602 870.804 505.461Z" fill="white" stroke="#263238" stroke-linecap="round" stroke-linejoin="round"/>
<path d="M820.79 497.938C803.84 507.187 788.905 522.632 788.99 534.169C811.592 536.683 834.375 531.422 853.598 519.25C849.073 508.239 838.08 488.532 820.79 497.938Z" fill="white" stroke="#263238" stroke-linecap="round" stroke-linejoin="round"/>
<path d="M704.779 465.259C709.91 481.269 718.984 495.726 731.163 507.298C743.342 518.87 758.234 527.182 774.465 531.47C769.373 517.943 760.693 502.811 746.097 494.357C715.46 476.625 718.708 481.47 704.779 465.259Z" fill="white" stroke="#263238" stroke-linecap="round" stroke-linejoin="round"/>
<path d="M700.538 445.211C701.022 449.571 701.789 453.895 702.836 458.154C711.502 454.531 720.878 452.173 725.927 460.044C736.409 476.398 746.905 492.723 754.097 486.5C761.288 480.277 759.458 466.367 747.303 457.117C747.303 457.117 738.792 442.767 746.849 427.01C754.905 411.253 731.062 390.068 719.403 406.891C707.744 423.713 724.821 452.471 701.559 445.523L700.538 445.211Z" fill="white" stroke="#263238" stroke-linecap="round" stroke-linejoin="round"/>
<path d="M825.825 337.767C820.416 346.889 816.539 356.84 814.351 367.221C809.315 392.512 848.718 404.83 854.42 389.841C858.009 380.435 866.874 371.37 872.987 365.985C860.185 352.378 843.855 342.608 825.825 337.767Z" fill="white" stroke="#263238" stroke-linecap="round" stroke-linejoin="round"/>
<path d="M895.327 403.978C894.334 400.866 893.185 397.84 891.923 394.913C884.434 398.792 874.647 404.93 869.597 412.56C860.746 425.93 832.591 432.352 816.918 420.289C801.245 408.226 811.032 381.401 797.812 360.614C791.5 350.668 784.167 341.419 774.153 337.753C772.593 338.165 771.033 338.619 769.487 339.174C754.161 344.092 740.248 352.646 728.93 364.107C717.613 375.567 709.225 389.596 704.481 405.001C726.452 394.274 751.289 360.742 767.402 392.81C785.585 429.056 737.403 459.021 776.664 483.218C815.925 507.415 849.428 447.995 874.987 495.025L876.973 498.691C887.746 485.729 895.077 470.251 898.286 453.694C901.494 437.137 900.476 420.036 895.327 403.978Z" fill="white" stroke="#263238" stroke-linecap="round" stroke-linejoin="round"/>
<path d="M750.632 516.136C775.514 491.212 775.514 450.801 750.632 425.876C725.75 400.951 685.408 400.951 660.526 425.876C635.644 450.8 635.644 491.212 660.526 516.136C685.408 541.061 725.75 541.061 750.632 516.136Z" fill="#B37443" stroke="#263238" stroke-linecap="round" stroke-linejoin="round"/>
<path d="M747.983 470.743C750.281 482.834 756.721 494.897 763.728 497.1C767.418 488.876 769.318 479.959 769.302 470.942C769.303 465.531 768.622 460.141 767.274 454.901C759.713 455.597 745.629 458.41 747.983 470.743Z" fill="white" stroke="#263238" stroke-linecap="round" stroke-linejoin="round"/>
<path d="M705.587 534.88C716.279 534.884 726.799 532.191 736.177 527.048C745.555 521.905 753.489 514.479 759.245 505.454C750.068 505.909 739.218 508.296 731.26 515.4C714.537 530.617 718.126 529.523 705.587 534.88Z" fill="#B37443" stroke="#263238" stroke-linecap="round" stroke-linejoin="round"/>
<path d="M692.652 533.459C695.389 534.026 698.161 534.406 700.949 534.595C700.439 528.628 700.836 522.476 706.623 520.941C718.566 517.744 730.509 514.562 728.112 508.978C725.715 503.394 716.977 501.802 709.006 507.386C705.73 507.983 702.36 507.788 699.175 506.817C695.99 505.846 693.082 504.126 690.694 501.802C682.737 493.817 665.163 504.189 673.191 514.59C681.219 524.991 701.843 520.174 693.049 532.933L692.652 533.459Z" fill="#B37443" stroke="#263238" stroke-linecap="round" stroke-linejoin="round"/>
<path d="M652 436.515C656.465 441.58 661.737 445.867 667.603 449.203C681.929 457.188 697.049 435.648 689.092 429.311C684.099 425.305 680.354 418.172 678.269 413.398C667.536 418.504 658.438 426.51 652 436.515Z" fill="#B37443" stroke="#263238" stroke-linecap="round" stroke-linejoin="round"/>
<path d="M705.588 407.189C703.517 407.189 701.46 407.288 699.446 407.487C700.325 412.787 702.155 419.934 705.786 424.537C712.155 432.522 710.566 450.866 700.212 458.041C689.857 465.216 675.532 454.048 660.411 458.041C653.178 459.945 646.128 462.587 641.972 467.987C641.972 469.01 641.901 470.047 641.901 471.084C641.893 481.349 644.362 491.464 649.096 500.567C653.83 509.671 660.69 517.494 669.092 523.371C666.879 507.94 651.419 486.315 673.957 482.792C699.488 478.799 708.183 513.894 730.48 494.755C752.778 475.616 723.388 443.704 756.749 437.325L759.345 436.842C753.608 427.759 745.671 420.277 736.272 415.093C726.873 409.908 716.317 407.189 705.588 407.189Z" fill="#B37443" stroke="#263238" stroke-linecap="round" stroke-linejoin="round"/>
<path d="M874.874 534.823C916.807 534.823 950.801 500.771 950.801 458.765C950.801 416.76 916.807 382.708 874.874 382.708C832.94 382.708 798.947 416.76 798.947 458.765C798.947 500.771 832.94 534.823 874.874 534.823Z" fill="#BDBDBD" stroke="#263238" stroke-linecap="round" stroke-linejoin="round"/>
<path d="M859.228 384.342C857.668 384.669 856.136 385.067 854.619 385.479C884.32 394.345 906.135 423.841 906.135 458.78C906.135 493.718 884.32 523.2 854.619 532.038C856.136 532.45 857.668 532.848 859.228 533.174C891.057 525.942 914.972 495.366 914.972 458.751C914.972 422.136 891.057 391.574 859.228 384.342Z" fill="#D9D9D9" stroke="#263238" stroke-linecap="round" stroke-linejoin="round"/>
<path d="M782.796 544.751C810.843 536.599 826.901 506.934 818.663 478.492C810.425 450.05 781.01 433.602 752.963 441.754C724.916 449.906 708.858 479.57 717.096 508.012C725.334 536.454 754.749 552.902 782.796 544.751Z" fill="white" stroke="#263238" stroke-linecap="round" stroke-linejoin="round"/>
<path d="M791.43 527.811C813.039 509.929 816.49 478.376 799.138 457.335C781.786 436.294 750.202 433.733 728.593 451.615C706.984 469.496 703.533 501.05 720.885 522.091C738.237 543.132 769.821 545.693 791.43 527.811Z" fill="white" stroke="#263238" stroke-linecap="round" stroke-linejoin="round"/>
<path d="M800.901 503.011C809.47 478.771 796.752 452.145 772.495 443.541C748.237 434.936 721.626 447.611 713.057 471.85C704.488 496.09 717.206 522.716 741.463 531.321C765.721 539.926 792.332 527.251 800.901 503.011Z" fill="white" stroke="#263238" stroke-linecap="round" stroke-linejoin="round"/>
<path d="M644.653 508.523C644.653 508.523 611.222 503.365 599.264 505.085C587.307 506.804 576.13 516.238 576.13 516.238C576.13 516.238 580.386 519.677 588.981 519.677C597.577 519.677 618.98 515.414 618.98 515.414C618.98 515.414 599.264 518.852 591.548 526.582C583.832 534.311 583.038 548.036 583.038 548.036C583.038 548.036 589.903 548.903 601.903 542.893C613.902 536.883 624.966 517.957 624.966 517.957C624.966 517.957 624.115 520.543 625.817 529.978C627.519 539.412 632.682 542.865 632.682 542.865C632.682 542.865 637.817 535.988 636.937 529.978C636.058 523.967 635.221 517.105 635.221 517.105C635.221 517.105 638.653 522.248 653.22 523.967C667.787 525.687 677.22 511.095 677.22 511.095C677.22 511.095 664.369 499.074 644.653 508.523Z" fill="#263238"/>
<path d="M643.788 511.947C643.788 511.947 638.653 493.917 625.788 487.907C617.982 484.281 609.536 482.239 600.938 481.897C600.938 481.897 604.371 500.794 614.654 508.523C624.937 516.252 643.788 511.947 643.788 511.947Z" fill="#263238"/>
<path d="M869.2 525.687C869.2 525.687 864.051 510.242 857.2 501.646C850.349 493.05 832.35 487.054 832.35 487.054C832.35 487.054 829.782 497.355 834.066 506.804C838.35 516.252 858.065 523.967 858.065 523.967C851.817 522.968 845.449 522.968 839.201 523.967C829.782 525.687 818.634 538.574 818.634 538.574C818.634 538.574 837.484 542.836 851.257 540.279C865.03 537.721 866.689 531.754 866.689 531.754C866.689 531.754 862.434 537.764 874.405 542.055C886.377 546.346 904.39 536.854 904.39 536.854C904.39 536.854 896.688 527.406 886.405 523.967C876.122 520.529 869.2 525.687 869.2 525.687Z" fill="#263238"/>
</g>
<defs>
<clipPath id="clip0_3_33">
<rect width="992" height="572" fill="white"/>
</clipPath>
</defs>
</svg>
